<svg id="graph-svg" xmlns="http://www.w3.org/2000/svg" xmlns:xlink="http://www.w3.org/1999/xlink"><desc>{"generated":"2026-05-11T18:46:27.957Z","tool":"proof360","nodes":[{"id":"entity","nodeType":"entity","label":"Target","status":"active"},{"id":"firecrawl","nodeType":"api","label":"Firecrawl","status":"done"},{"id":"perplexity","nodeType":"model","label":"Perplexity","status":"done"},{"id":"dns","nodeType":"api","label":"DNS","status":"done"},{"id":"vector","nodeType":"model","label":"VECTOR","status":"done"},{"id":"corpus","nodeType":"mcp","label":"CORPUS","status":"done"},{"id":"gap_analysis","nodeType":"model","label":"Gap Analysis","status":"done"},{"id":"aws_programs","nodeType":"model","label":"AWS Programs","status":"done"}],"edges":[{"from":"entity","to":"firecrawl"},{"from":"entity","to":"perplexity"},{"from":"entity","to":"dns"},{"from":"firecrawl","to":"vector"},{"from":"entity","to":"corpus"},{"from":"vector","to":"gap_analysis"},{"from":"entity","to":"aws_programs"}]}</desc>
        <defs>
          <symbol id="icon-api" viewBox="0 0 24 24">
            <rect x="9" y="2" width="6" height="10" rx="1" fill="none" stroke="currentColor" stroke-width="2"/>
            <line x1="7" y1="7" x2="4" y2="7" stroke="currentColor" stroke-width="2"/>
            <line x1="17" y1="7" x2="20" y2="7" stroke="currentColor" stroke-width="2"/>
            <path d="M6 12h12v6a3 3 0 01-3 3H9a3 3 0 01-3-3v-6z" fill="none" stroke="currentColor" stroke-width="2"/>
          </symbol>
          <symbol id="icon-model" viewBox="0 0 24 24">
            <polygon points="12,2 15,9 22,9 16.5,13.5 18.5,21 12,17 5.5,21 7.5,13.5 2,9 9,9" fill="none" stroke="currentColor" stroke-width="2"/>
          </symbol>
          <symbol id="icon-mcp" viewBox="0 0 24 24">
            <polygon points="12,2 20,7 20,17 12,22 4,17 4,7" fill="none" stroke="currentColor" stroke-width="2"/>
          </symbol>
          <symbol id="icon-document" viewBox="0 0 24 24">
            <path d="M14 2H6a2 2 0 00-2 2v16a2 2 0 002 2h12a2 2 0 002-2V8z" fill="none" stroke="currentColor" stroke-width="2"/>
            <polyline points="14,2 14,8 20,8" fill="none" stroke="currentColor" stroke-width="2"/>
          </symbol>
          <symbol id="icon-entity" viewBox="0 0 24 24">
            <rect x="3" y="3" width="18" height="18" rx="2" fill="none" stroke="currentColor" stroke-width="2"/>
            <line x1="3" y1="9" x2="21" y2="9" stroke="currentColor" stroke-width="1.5"/>
            <line x1="9" y1="9" x2="9" y2="21" stroke="currentColor" stroke-width="1.5"/>
          </symbol>
        <marker id="arrow" viewBox="0 0 10 10" refX="8" refY="5" markerWidth="6" markerHeight="6" orient="auto-start-reverse"><path d="M 0 0 L 10 5 L 0 10 z" fill="#1e3a3a"/></marker></defs>
      <g><g><line stroke="#1e3a3a" stroke-width="1.5" marker-end="url(#arrow)" x1="558.6549655435687" y1="393.28101634233076" x2="429.19749221086846" y2="422.03563708002036"/><line stroke="#1e3a3a" stroke-width="1.5" marker-end="url(#arrow)" x1="558.6549655435687" y1="393.28101634233076" x2="655.9858301075153" y2="336.55283460176787"/><line stroke="#1e3a3a" stroke-width="1.5" marker-end="url(#arrow)" x1="558.6549655435687" y1="393.28101634233076" x2="668.5067519227005" y2="420.9614517925898"/><line stroke="#1e3a3a" stroke-width="1.5" marker-end="url(#arrow)" x1="429.19749221086846" y1="422.03563708002036" x2="298.3913289924404" y2="430.39049763017005"/><line stroke="#1e3a3a" stroke-width="1.5" marker-end="url(#arrow)" x1="558.6549655435687" y1="393.28101634233076" x2="601.9799764158473" y2="491.2219562766242"/><line stroke="#1e3a3a" stroke-width="1.5" marker-end="url(#arrow)" x1="298.3913289924404" y1="430.39049763017005" x2="187.18530511413493" y2="430.8141454803342"/><line stroke="#1e3a3a" stroke-width="1.5" marker-end="url(#arrow)" x1="558.6549655435687" y1="393.28101634233076" x2="496.0881112685248" y2="306.74114811737616"/></g><g><g class="nd" transform="translate(558.6549655435687,393.28101634233076)"><circle r="24" fill="#0C0C12" stroke="#94a3b8" stroke-width="2" opacity="1"/><use width="20" height="20" x="-10" y="-10" href="#icon-entity" color="#94a3b8" opacity="1"/><text y="37" text-anchor="middle" font-size="9" fill="#475569" font-family="monospace">Target</text></g><g class="nd" transform="translate(429.19749221086846,422.03563708002036)"><circle r="24" fill="#0C0C12" stroke="#2dd4bf" stroke-width="2" opacity="1"/><use width="20" height="20" x="-10" y="-10" href="#icon-api" color="#2dd4bf" opacity="1"/><text y="37" text-anchor="middle" font-size="9" fill="#475569" font-family="monospace">Firecrawl</text></g><g class="nd" transform="translate(655.9858301075153,336.55283460176787)"><circle r="24" fill="#0C0C12" stroke="#818cf8" stroke-width="2" opacity="1"/><use width="20" height="20" x="-10" y="-10" href="#icon-model" color="#818cf8" opacity="1"/><text y="37" text-anchor="middle" font-size="9" fill="#475569" font-family="monospace">Perplexity</text></g><g class="nd" transform="translate(668.5067519227005,420.9614517925898)"><circle r="24" fill="#0C0C12" stroke="#2dd4bf" stroke-width="2" opacity="1"/><use width="20" height="20" x="-10" y="-10" href="#icon-api" color="#2dd4bf" opacity="1"/><text y="37" text-anchor="middle" font-size="9" fill="#475569" font-family="monospace">DNS</text></g><g class="nd" transform="translate(298.3913289924404,430.39049763017005)"><circle r="24" fill="#0C0C12" stroke="#818cf8" stroke-width="2" opacity="1"/><use width="20" height="20" x="-10" y="-10" href="#icon-model" color="#818cf8" opacity="1"/><text y="37" text-anchor="middle" font-size="9" fill="#475569" font-family="monospace">VECTOR</text></g><g class="nd" transform="translate(601.9799764158473,491.2219562766242)"><circle r="24" fill="#0C0C12" stroke="#f59e0b" stroke-width="2" opacity="1"/><use width="20" height="20" x="-10" y="-10" href="#icon-mcp" color="#f59e0b" opacity="1"/><text y="37" text-anchor="middle" font-size="9" fill="#475569" font-family="monospace">CORPUS</text></g><g class="nd" transform="translate(187.18530511413493,430.8141454803342)"><circle r="24" fill="#0C0C12" stroke="#818cf8" stroke-width="2" opacity="1"/><use width="20" height="20" x="-10" y="-10" href="#icon-model" color="#818cf8" opacity="1"/><text y="37" text-anchor="middle" font-size="9" fill="#475569" font-family="monospace">Gap Analysis</text></g><g class="nd" transform="translate(496.0881112685248,306.74114811737616)"><circle r="24" fill="#0C0C12" stroke="#818cf8" stroke-width="2" opacity="1"/><use width="20" height="20" x="-10" y="-10" href="#icon-model" color="#818cf8" opacity="1"/><text y="37" text-anchor="middle" font-size="9" fill="#475569" font-family="monospace">AWS Programs</text></g></g></g></svg>