<svg width="630" height="630" viewBox="0 0 630 630" fill="none" xmlns="http://www.w3.org/2000/svg">
<path d="M620.007 315.005C620.007 483.454 483.453 620.009 315.004 620.009C146.555 620.009 10 483.454 10 315.005C10 146.556 146.555 10.0015 315.004 10.0015C483.453 10.0015 620.007 146.556 620.007 315.005Z" fill="#AC55FF" stroke="#240642" stroke-width="10" stroke-miterlimit="10"/>
<g clip-path="url(#clip0_1183_198)">
<path d="M378.843 321.744C376.39 318.72 375.051 314.943 375.051 311.047V282.915C375.051 262.951 365.659 251.518 349.049 251.518C326.932 251.518 322.65 263.589 316.761 273.859C316.476 274.355 315.846 274.532 315.342 274.261L314.111 273.6C313.584 273.318 313.395 272.655 313.691 272.136L315.371 269.194C316.434 267.368 317.001 265.295 317.001 263.183V258.939C317.001 256.199 314.785 253.979 312.051 253.979H287.966C284.34 253.979 282.385 258.244 284.749 261.001L288.258 265.091C291.797 269.215 293.741 274.471 293.741 279.908V309.109C293.741 312.349 293.05 315.551 291.715 318.501L288.926 324.662C287.651 327.475 289.705 330.669 292.79 330.669H322.879C326.461 330.669 328.431 326.495 326.157 323.722L323.721 320.751C321.236 317.719 319.878 313.914 319.878 309.99V293.877C319.878 288.253 321.222 282.671 324.036 277.804C327.452 271.898 331.913 268.878 337.497 268.878C345.012 268.878 349.051 274.242 349.051 283.929V310.102C349.051 313.264 348.393 316.391 347.119 319.282L344.729 324.704C343.49 327.513 345.544 330.671 348.61 330.671H377.169C380.741 330.671 382.715 326.518 380.462 323.738L378.845 321.746L378.843 321.744Z" fill="#240642"/>
<path d="M432.483 319.446C431.521 319.637 430.578 319.77 429.749 319.789C421.987 319.789 418.253 314.892 418.253 304.824V264.811H432.388C434.024 264.811 435.349 263.481 435.349 261.844V256.996C435.349 255.357 434.022 254.027 432.386 254.027H414.299C413.791 254.027 413.379 253.615 413.379 253.106V251.749C413.379 251.244 413.787 250.831 414.291 250.827H416.128C417.3 250.831 418.251 249.878 418.251 248.704V238.116C418.251 236.098 416.618 234.461 414.604 234.461H404.202C402.306 234.461 400.63 235.692 400.07 237.506C398.871 241.476 395.979 254.025 386.579 254.025H383.782C382.153 254.025 380.83 255.353 380.83 256.994V261.842C380.83 263.483 382.155 264.811 383.782 264.811H392.403V305.836C392.403 322.528 400.88 331.738 416.242 331.738C423.909 331.738 430.862 328.933 435.072 323.875C436.71 321.899 435.005 318.951 432.481 319.446H432.483Z" fill="#240642"/>
<path d="M281.461 316.43C276.881 317.257 273.783 313.663 273.783 308.022V280.871C273.783 261.507 261.534 251.106 237.741 251.106C216.435 251.106 201.882 259.315 201.842 271.71C201.831 273.936 202.667 276.116 203.894 278.216C205.868 281.252 209.435 283.289 213.522 283.289C219.742 283.289 224.784 278.588 224.784 272.789C224.763 266.843 219.755 263.83 218.234 263.262C219.316 262.34 223.98 258.738 230.87 258.738C241.821 258.738 247.687 267.053 247.687 280.004V285.151C239.467 285.151 230.246 285.978 223.762 287.562C207.894 291.036 199.532 300.083 199.532 311.353C199.532 324.064 209.629 332.005 225.628 332.005C236.735 332.005 245.963 328.112 250.289 321.602C253.023 327.098 259.079 330.563 266.87 330.563C276.948 330.563 282.223 325.295 283.89 319.035C284.321 317.253 282.977 316.133 281.461 316.43V316.43ZM247.687 310.341C246.83 316.401 242.649 320.018 236.59 320.018C229.952 320.018 225.484 315.542 225.484 308.46C225.484 302.972 227.932 298.171 233.274 295.863C236.874 294.27 242.493 293.401 247.685 293.258V310.341H247.687Z" fill="#240642"/>
<path d="M522.492 316.43C517.912 317.257 514.815 313.663 514.815 308.022V280.871C514.815 261.507 502.566 251.106 478.773 251.106C457.466 251.106 442.913 259.315 442.874 271.71C442.863 273.936 443.699 276.116 444.925 278.216C446.899 281.252 450.467 283.289 454.554 283.289C460.774 283.289 465.816 278.588 465.816 272.789C465.795 266.843 460.786 263.83 459.266 263.262C460.348 262.34 465.012 258.738 471.902 258.738C482.853 258.738 488.718 267.053 488.718 280.004V285.151C480.499 285.151 471.278 285.978 464.793 287.562C448.926 291.036 440.564 300.083 440.564 311.353C440.564 324.064 450.66 332.005 466.66 332.005C477.767 332.005 486.994 328.112 491.32 321.602C494.054 327.098 500.111 330.563 507.902 330.563C517.979 330.563 523.255 325.295 524.922 319.035C525.352 317.253 524.008 316.133 522.492 316.43V316.43ZM488.718 310.341C487.861 316.401 483.68 320.018 477.622 320.018C470.984 320.018 466.515 315.542 466.515 308.46C466.515 302.972 468.964 298.171 474.306 295.863C477.905 294.27 483.525 293.401 488.716 293.258V310.341H488.718Z" fill="#240642"/>
<path d="M203.625 228.423H190.548C187.734 228.423 186.048 231.558 187.596 233.912L189.836 237.323C191.752 240.237 192.125 243.905 190.838 247.147L167.377 306.272C166.298 309.119 165.204 311.069 164.706 311.549C164.441 311.806 163.996 311.882 163.65 311.623L162.413 310.636C162.02 310.341 162.043 309.91 162.404 309.506C163.093 308.591 163.519 307.488 163.761 306.483C164.049 305.277 163.952 304.01 163.511 302.851L143.641 250.228C142.328 246.754 142.381 242.912 143.784 239.476L145.907 234.279C147.049 231.482 144.995 228.417 141.98 228.417H109.966C105.652 228.419 103.403 233.561 106.324 236.738L108.361 238.954C112.103 243.023 115.062 247.751 117.087 252.898L145.615 327.595C146.36 329.491 148.187 330.734 150.22 330.734H166.016C168.045 330.734 169.87 329.493 170.617 327.603L207.569 234.241C208.673 231.449 206.622 228.423 203.625 228.423Z" fill="#240642"/>
</g>
<path d="M169.775 409.784V367.784H183.095C195.215 367.784 199.715 373.424 199.715 380.564C199.715 387.704 195.215 393.404 182.975 393.404H175.355V409.784H169.775ZM175.355 388.844H183.035C191.075 388.844 193.835 385.424 193.835 380.684C193.835 375.944 191.075 372.464 183.035 372.464H175.355V388.844ZM238.447 409.784L233.587 396.764H215.227L210.427 409.784H204.607L220.747 367.784H228.427L244.567 409.784H238.447ZM216.847 392.384H231.967L224.407 371.984L216.847 392.384ZM287.625 409.784H280.545L261.945 389.204V409.784H256.365V367.784H270.765C280.245 367.784 285.225 372.344 285.225 379.244C285.225 386.084 280.245 390.464 270.705 390.464H269.745L287.625 409.784ZM261.945 372.524V386.084H270.885C276.345 386.084 279.405 383.864 279.405 379.304C279.405 374.804 276.345 372.524 270.885 372.524H261.945ZM307.936 409.784V372.464H293.956V367.784H327.496V372.464H313.516V409.784H307.936ZM370.277 367.784H375.617V409.784H367.877L344.957 373.424V409.784H339.557V367.784H347.657L370.277 403.544V367.784ZM392.314 409.784V367.784H418.714V372.524H397.894V385.364H417.514V390.044H397.894V404.984H418.714V409.784H392.314ZM464.848 409.784H457.768L439.168 389.204V409.784H433.588V367.784H447.988C457.468 367.784 462.448 372.344 462.448 379.244C462.448 386.084 457.468 390.464 447.928 390.464H446.968L464.848 409.784ZM439.168 372.524V386.084H448.108C453.568 386.084 456.628 383.864 456.628 379.304C456.628 374.804 453.568 372.524 448.108 372.524H439.168Z" fill="#F8F4F3"/>
<circle cx="315.004" cy="315" r="268" stroke="#240642" stroke-width="10"/>
<defs>
<clipPath id="clip0_1183_198">
<rect width="419.996" height="103.587" fill="white" transform="translate(105.005 228.418)"/>
</clipPath>
</defs>
</svg>
